<svg width="900" height="230" viewBox="0 0 900 230" xmlns="http://www.w3.org/2000/svg">
  <defs>
    <linearGradient id="g1" x1="0%" y1="0%" x2="100%" y2="0%">
      <stop offset="0%" stop-color="#00d9ff"/>
      <stop offset="100%" stop-color="#a78bfa"/>
    </linearGradient>
  </defs>

  <rect width="900" height="230" rx="12" fill="#161b22" stroke="#21262d" stroke-width="1"/>
  <rect width="900" height="42" rx="12" fill="#0d1117"/>
  <rect x="0" y="30" width="900" height="12" fill="#0d1117"/>
  <rect x="0" y="41" width="900" height="1" fill="#21262d"/>
  <circle cx="26" cy="21" r="6" fill="#ff5f57"/>
  <circle cx="46" cy="21" r="6" fill="#febc2e"/>
  <circle cx="66" cy="21" r="6" fill="#28c840"/>
  <text x="450" y="26" font-family="'JetBrains Mono','Courier New',monospace" font-size="11" fill="#8b949e" text-anchor="middle">htop  —  tanim@dev: ~</text>

  <!-- column headers -->
  <text x="26" y="62" font-family="'JetBrains Mono','Courier New',monospace" font-size="10" fill="#3b4048" letter-spacing="1">PID  PROCESS                                PROGRESS                                              STATUS</text>
  <line x1="26" y1="68" x2="874" y2="68" stroke="#21262d" stroke-width="0.5"/>

  <!-- Row 1 — 85% -->
  <rect x="26" y="74" width="848" height="28" rx="4" fill="rgba(0,217,255,0.03)"/>
  <text x="36" y="92" font-family="'JetBrains Mono','Courier New',monospace" font-size="12">
    <tspan fill="#00d9ff">[1]</tspan><tspan fill="#e6edf3">  real-time-chat-infrastructure</tspan>
  </text>
  <rect x="490" y="80" width="310" height="8" rx="4" fill="#21262d"/>
  <rect x="490" y="80" width="264" height="8" rx="4" fill="url(#g1)"/>
  <text x="806" y="91" font-family="'JetBrains Mono','Courier New',monospace" font-size="11" fill="#8b949e" text-anchor="end">85%</text>
  <rect x="816" y="78" width="54" height="18" rx="3" fill="rgba(63,185,80,0.12)" stroke="rgba(63,185,80,0.3)" stroke-width="1"/>
  <text x="843" y="91" font-family="'JetBrains Mono','Courier New',monospace" font-size="10" font-weight="700" fill="#3fb950" text-anchor="middle">BUILD</text>

  <!-- Row 2 — 60% -->
  <text x="36" y="128" font-family="'JetBrains Mono','Courier New',monospace" font-size="12">
    <tspan fill="#00d9ff">[2]</tspan><tspan fill="#e6edf3">  webrtc-p2p-image-transfer</tspan>
  </text>
  <rect x="490" y="116" width="310" height="8" rx="4" fill="#21262d"/>
  <rect x="490" y="116" width="186" height="8" rx="4" fill="url(#g1)" opacity="0.85"/>
  <text x="806" y="127" font-family="'JetBrains Mono','Courier New',monospace" font-size="11" fill="#8b949e" text-anchor="end">60%</text>
  <rect x="816" y="114" width="54" height="18" rx="3" fill="rgba(0,217,255,0.10)" stroke="rgba(0,217,255,0.3)" stroke-width="1"/>
  <text x="843" y="127" font-family="'JetBrains Mono','Courier New',monospace" font-size="10" font-weight="700" fill="#00d9ff" text-anchor="middle">ACTIVE</text>

  <!-- Row 3 — 40% -->
  <text x="36" y="164" font-family="'JetBrains Mono','Courier New',monospace" font-size="12">
    <tspan fill="#00d9ff">[3]</tspan><tspan fill="#e6edf3">  distributed-node-experiments</tspan>
  </text>
  <rect x="490" y="152" width="310" height="8" rx="4" fill="#21262d"/>
  <rect x="490" y="152" width="124" height="8" rx="4" fill="url(#g1)" opacity="0.7"/>
  <text x="806" y="163" font-family="'JetBrains Mono','Courier New',monospace" font-size="11" fill="#8b949e" text-anchor="end">40%</text>
  <rect x="816" y="150" width="54" height="18" rx="3" fill="rgba(210,168,255,0.10)" stroke="rgba(210,168,255,0.3)" stroke-width="1"/>
  <text x="843" y="163" font-family="'JetBrains Mono','Courier New',monospace" font-size="10" font-weight="700" fill="#d2a8ff" text-anchor="middle">RESEARCH</text>

  <!-- Row 4 — 70% -->
  <text x="36" y="200" font-family="'JetBrains Mono','Courier New',monospace" font-size="12">
    <tspan fill="#00d9ff">[4]</tspan><tspan fill="#e6edf3">  scalable-backend-architecture</tspan>
  </text>
  <rect x="490" y="188" width="310" height="8" rx="4" fill="#21262d"/>
  <rect x="490" y="188" width="217" height="8" rx="4" fill="url(#g1)" opacity="0.75"/>
  <text x="806" y="199" font-family="'JetBrains Mono','Courier New',monospace" font-size="11" fill="#8b949e" text-anchor="end">70%</text>
  <rect x="816" y="186" width="54" height="18" rx="3" fill="rgba(247,169,68,0.10)" stroke="rgba(247,169,68,0.3)" stroke-width="1"/>
  <text x="843" y="199" font-family="'JetBrains Mono','Courier New',monospace" font-size="10" font-weight="700" fill="#f7a944" text-anchor="middle">DESIGN</text>

  <line x1="26" y1="213" x2="874" y2="213" stroke="#21262d" stroke-width="0.5"/>
  <text x="36" y="225" font-family="'JetBrains Mono','Courier New',monospace" font-size="11">
    <tspan fill="#8b949e">next milestone </tspan><tspan fill="#00d9ff">→ </tspan><tspan fill="#e6edf3">Ship WebRTC P2P transfer module</tspan>
  </text>
</svg>
