<svg width="900" height="248" viewBox="0 0 900 248" xmlns="http://www.w3.org/2000/svg">
  <rect width="900" height="248" rx="12" fill="#161b22" stroke="#21262d" stroke-width="1"/>

  <!-- left col header -->
  <rect x="0" y="0" width="440" height="42" rx="10" fill="#0d1117"/>
  <rect x="0" y="30" width="440" height="12" fill="#0d1117"/>
  <rect x="0" y="41" width="440" height="1" fill="#21262d"/>
  <text x="22" y="26" font-family="'JetBrains Mono','Courier New',monospace" font-size="12" font-weight="700" fill="#00d9ff">⚡  Systems &amp; Infrastructure</text>

  <!-- right col header -->
  <rect x="460" y="0" width="440" height="42" rx="10" fill="#0d1117"/>
  <rect x="460" y="30" width="440" height="12" fill="#0d1117"/>
  <rect x="460" y="41" width="440" height="1" fill="#21262d"/>
  <text x="482" y="26" font-family="'JetBrains Mono','Courier New',monospace" font-size="12" font-weight="700" fill="#d2a8ff">🔬  Scientific Computing</text>

  <!-- center divider -->
  <line x1="450" y1="0" x2="450" y2="248" stroke="#21262d" stroke-width="1"/>

  <!-- left tree lines -->
  <line x1="40" y1="58" x2="40" y2="200" stroke="#21262d" stroke-width="1"/>

  <line x1="40" y1="73" x2="58" y2="73" stroke="#21262d" stroke-width="1"/>
  <text x="62" y="78" font-family="'JetBrains Mono','Courier New',monospace" font-size="12"><tspan fill="#8b949e">├── </tspan><tspan fill="#e6edf3">Distributed consensus</tspan><tspan fill="#3b4048"> (Raft, Paxos)</tspan></text>

  <line x1="40" y1="99" x2="58" y2="99" stroke="#21262d" stroke-width="1"/>
  <text x="62" y="104" font-family="'JetBrains Mono','Courier New',monospace" font-size="12"><tspan fill="#8b949e">├── </tspan><tspan fill="#e6edf3">Event-driven architectures</tspan></text>

  <line x1="40" y1="125" x2="58" y2="125" stroke="#21262d" stroke-width="1"/>
  <text x="62" y="130" font-family="'JetBrains Mono','Courier New',monospace" font-size="12"><tspan fill="#8b949e">├── </tspan><tspan fill="#e6edf3">WebRTC &amp; P2P networking</tspan></text>

  <line x1="40" y1="151" x2="58" y2="151" stroke="#21262d" stroke-width="1"/>
  <text x="62" y="156" font-family="'JetBrains Mono','Courier New',monospace" font-size="12"><tspan fill="#8b949e">├── </tspan><tspan fill="#e6edf3">Real-time pub/sub systems</tspan></text>

  <line x1="40" y1="177" x2="58" y2="177" stroke="#21262d" stroke-width="1"/>
  <text x="62" y="182" font-family="'JetBrains Mono','Courier New',monospace" font-size="12"><tspan fill="#8b949e">├── </tspan><tspan fill="#e6edf3">Low-latency data pipelines</tspan></text>

  <line x1="40" y1="200" x2="58" y2="200" stroke="#21262d" stroke-width="1"/>
  <text x="62" y="205" font-family="'JetBrains Mono','Courier New',monospace" font-size="12"><tspan fill="#8b949e">└── </tspan><tspan fill="#e6edf3">Horizontal scalability patterns</tspan></text>

  <!-- right tree lines -->
  <line x1="500" y1="58" x2="500" y2="200" stroke="#21262d" stroke-width="1"/>

  <line x1="500" y1="73" x2="518" y2="73" stroke="#21262d" stroke-width="1"/>
  <text x="522" y="78" font-family="'JetBrains Mono','Courier New',monospace" font-size="12"><tspan fill="#8b949e">├── </tspan><tspan fill="#e6edf3">Computational physics sims</tspan></text>

  <line x1="500" y1="99" x2="518" y2="99" stroke="#21262d" stroke-width="1"/>
  <text x="522" y="104" font-family="'JetBrains Mono','Courier New',monospace" font-size="12"><tspan fill="#8b949e">├── </tspan><tspan fill="#e6edf3">Numerical methods &amp; solvers</tspan></text>

  <line x1="500" y1="125" x2="518" y2="125" stroke="#21262d" stroke-width="1"/>
  <text x="522" y="130" font-family="'JetBrains Mono','Courier New',monospace" font-size="12"><tspan fill="#8b949e">├── </tspan><tspan fill="#e6edf3">HPC &amp; parallel computation</tspan></text>

  <line x1="500" y1="151" x2="518" y2="151" stroke="#21262d" stroke-width="1"/>
  <text x="522" y="156" font-family="'JetBrains Mono','Courier New',monospace" font-size="12"><tspan fill="#8b949e">├── </tspan><tspan fill="#e6edf3">Scientific software engineering</tspan></text>

  <line x1="500" y1="177" x2="518" y2="177" stroke="#21262d" stroke-width="1"/>
  <text x="522" y="182" font-family="'JetBrains Mono','Courier New',monospace" font-size="12"><tspan fill="#8b949e">├── </tspan><tspan fill="#e6edf3">Data-intensive workflows</tspan></text>

  <line x1="500" y1="200" x2="518" y2="200" stroke="#21262d" stroke-width="1"/>
  <text x="522" y="205" font-family="'JetBrains Mono','Courier New',monospace" font-size="12"><tspan fill="#8b949e">└── </tspan><tspan fill="#e6edf3">Physics-informed algorithms</tspan></text>

  <!-- bottom note -->
  <line x1="22" y1="222" x2="878" y2="222" stroke="#21262d" stroke-width="0.5"/>
  <text x="450" y="240" font-family="'JetBrains Mono','Courier New',monospace" font-size="11" fill="#8b949e" text-anchor="middle">Both domains share the same underlying mathematics — that's what makes them interesting together.</text>
</svg>
