<svg width="900" height="296" viewBox="0 0 900 296" xmlns="http://www.w3.org/2000/svg">

  <!-- Card 1: Languages TL -->
  <rect x="0" y="0" width="440" height="140" rx="10" fill="#161b22" stroke="#21262d" stroke-width="1"/>
  <rect x="0" y="0" width="440" height="36" rx="10" fill="#0d1117"/>
  <rect x="0" y="26" width="440" height="10" fill="#0d1117"/>
  <rect x="0" y="35" width="440" height="1" fill="#21262d"/>
  <circle cx="20" cy="18" r="5" fill="#ff5f57"/><circle cx="36" cy="18" r="5" fill="#febc2e"/><circle cx="52" cy="18" r="5" fill="#28c840"/>
  <text x="220" y="23" font-family="'JetBrains Mono','Courier New',monospace" font-size="10" fill="#8b949e" text-anchor="middle" letter-spacing="2">LANGUAGES</text>

  <rect x="14" y="48" width="102" height="24" rx="4" fill="rgba(247,223,30,0.07)" stroke="rgba(247,223,30,0.3)" stroke-width="1"/>
  <text x="65" y="64" font-family="'JetBrains Mono','Courier New',monospace" font-size="11" font-weight="700" fill="#f7df1e" text-anchor="middle">JavaScript</text>

  <rect x="124" y="48" width="106" height="24" rx="4" fill="rgba(49,120,198,0.1)" stroke="rgba(49,120,198,0.4)" stroke-width="1"/>
  <text x="177" y="64" font-family="'JetBrains Mono','Courier New',monospace" font-size="11" font-weight="700" fill="#60a5fa" text-anchor="middle">TypeScript</text>

  <rect x="238" y="48" width="84" height="24" rx="4" fill="rgba(55,163,221,0.08)" stroke="rgba(55,163,221,0.35)" stroke-width="1"/>
  <text x="280" y="64" font-family="'JetBrains Mono','Courier New',monospace" font-size="11" font-weight="700" fill="#57b6e6" text-anchor="middle">Python</text>

  <rect x="14" y="80" width="60" height="24" rx="4" fill="rgba(0,90,199,0.1)" stroke="rgba(0,90,199,0.4)" stroke-width="1"/>
  <text x="44" y="96" font-family="'JetBrains Mono','Courier New',monospace" font-size="11" font-weight="700" fill="#7aa2f7" text-anchor="middle">C++</text>

  <rect x="82" y="80" width="62" height="24" rx="4" fill="rgba(149,88,178,0.1)" stroke="rgba(149,88,178,0.4)" stroke-width="1"/>
  <text x="113" y="96" font-family="'JetBrains Mono','Courier New',monospace" font-size="11" font-weight="700" fill="#c084fc" text-anchor="middle">Julia</text>

  <line x1="14" y1="116" x2="426" y2="116" stroke="#21262d" stroke-width="0.5"/>
  <text x="14" y="132" font-family="'JetBrains Mono','Courier New',monospace" font-size="10" fill="#8b949e">JS/TS → APIs &amp; real-time  ·  Python → science  ·  Julia → simulation  ·  C++ → HPC</text>

  <!-- Card 2: Frameworks TR -->
  <rect x="460" y="0" width="440" height="140" rx="10" fill="#161b22" stroke="#21262d" stroke-width="1"/>
  <rect x="460" y="0" width="440" height="36" rx="10" fill="#0d1117"/>
  <rect x="460" y="26" width="440" height="10" fill="#0d1117"/>
  <rect x="460" y="35" width="440" height="1" fill="#21262d"/>
  <circle cx="480" cy="18" r="5" fill="#ff5f57"/><circle cx="496" cy="18" r="5" fill="#febc2e"/><circle cx="512" cy="18" r="5" fill="#28c840"/>
  <text x="680" y="23" font-family="'JetBrains Mono','Courier New',monospace" font-size="10" fill="#8b949e" text-anchor="middle" letter-spacing="2">FRAMEWORKS</text>

  <rect x="474" y="48" width="84" height="24" rx="4" fill="rgba(63,185,80,0.08)" stroke="rgba(63,185,80,0.35)" stroke-width="1"/>
  <text x="516" y="64" font-family="'JetBrains Mono','Courier New',monospace" font-size="11" font-weight="700" fill="#3fb950" text-anchor="middle">Node.js</text>

  <rect x="566" y="48" width="80" height="24" rx="4" fill="rgba(255,255,255,0.04)" stroke="rgba(255,255,255,0.1)" stroke-width="1"/>
  <text x="606" y="64" font-family="'JetBrains Mono','Courier New',monospace" font-size="11" font-weight="700" fill="#cdd9e5" text-anchor="middle">Express</text>

  <rect x="654" y="48" width="90" height="24" rx="4" fill="rgba(255,255,255,0.04)" stroke="rgba(255,255,255,0.12)" stroke-width="1"/>
  <text x="699" y="64" font-family="'JetBrains Mono','Courier New',monospace" font-size="11" font-weight="700" fill="#cdd9e5" text-anchor="middle">Socket.IO</text>

  <rect x="474" y="80" width="80" height="24" rx="4" fill="rgba(255,255,255,0.04)" stroke="rgba(255,255,255,0.1)" stroke-width="1"/>
  <text x="514" y="96" font-family="'JetBrains Mono','Courier New',monospace" font-size="11" font-weight="700" fill="#e2e8f0" text-anchor="middle">Next.js</text>

  <rect x="562" y="80" width="72" height="24" rx="4" fill="rgba(255,62,0,0.08)" stroke="rgba(255,62,0,0.3)" stroke-width="1"/>
  <text x="598" y="96" font-family="'JetBrains Mono','Courier New',monospace" font-size="11" font-weight="700" fill="#ff6b35" text-anchor="middle">Svelte</text>

  <rect x="642" y="80" width="94" height="24" rx="4" fill="rgba(6,182,212,0.08)" stroke="rgba(6,182,212,0.3)" stroke-width="1"/>
  <text x="689" y="96" font-family="'JetBrains Mono','Courier New',monospace" font-size="11" font-weight="700" fill="#22d3ee" text-anchor="middle">Tailwind</text>

  <line x1="474" y1="116" x2="886" y2="116" stroke="#21262d" stroke-width="0.5"/>
  <text x="474" y="132" font-family="'JetBrains Mono','Courier New',monospace" font-size="10" fill="#8b949e">Real-time · REST APIs · SSR · UI components · Styling systems</text>

  <!-- Card 3: Tools BL -->
  <rect x="0" y="156" width="440" height="140" rx="10" fill="#161b22" stroke="#21262d" stroke-width="1"/>
  <rect x="0" y="156" width="440" height="36" rx="10" fill="#0d1117"/>
  <rect x="0" y="182" width="440" height="10" fill="#0d1117"/>
  <rect x="0" y="191" width="440" height="1" fill="#21262d"/>
  <circle cx="20" cy="174" r="5" fill="#ff5f57"/><circle cx="36" cy="174" r="5" fill="#febc2e"/><circle cx="52" cy="174" r="5" fill="#28c840"/>
  <text x="220" y="179" font-family="'JetBrains Mono','Courier New',monospace" font-size="10" fill="#8b949e" text-anchor="middle" letter-spacing="2">TOOLS &amp; PLATFORMS</text>

  <rect x="14" y="204" width="68" height="24" rx="4" fill="rgba(252,198,36,0.07)" stroke="rgba(252,198,36,0.3)" stroke-width="1"/>
  <text x="48" y="220" font-family="'JetBrains Mono','Courier New',monospace" font-size="11" font-weight="700" fill="#fcc624" text-anchor="middle">Linux</text>

  <rect x="90" y="204" width="54" height="24" rx="4" fill="rgba(240,80,50,0.08)" stroke="rgba(240,80,50,0.3)" stroke-width="1"/>
  <text x="117" y="220" font-family="'JetBrains Mono','Courier New',monospace" font-size="11" font-weight="700" fill="#f05032" text-anchor="middle">Git</text>

  <rect x="152" y="204" width="72" height="24" rx="4" fill="rgba(0,120,212,0.1)" stroke="rgba(0,120,212,0.35)" stroke-width="1"/>
  <text x="188" y="220" font-family="'JetBrains Mono','Courier New',monospace" font-size="11" font-weight="700" fill="#4da6ff" text-anchor="middle">Azure</text>

  <rect x="232" y="204" width="76" height="24" rx="4" fill="rgba(36,150,237,0.1)" stroke="rgba(36,150,237,0.35)" stroke-width="1"/>
  <text x="270" y="220" font-family="'JetBrains Mono','Courier New',monospace" font-size="11" font-weight="700" fill="#2496ed" text-anchor="middle">Docker</text>

  <rect x="14" y="236" width="80" height="24" rx="4" fill="rgba(0,122,204,0.1)" stroke="rgba(0,122,204,0.35)" stroke-width="1"/>
  <text x="54" y="252" font-family="'JetBrains Mono','Courier New',monospace" font-size="11" font-weight="700" fill="#4da6ff" text-anchor="middle">VSCode</text>

  <rect x="102" y="236" width="78" height="24" rx="4" fill="rgba(243,118,38,0.08)" stroke="rgba(243,118,38,0.3)" stroke-width="1"/>
  <text x="141" y="252" font-family="'JetBrains Mono','Courier New',monospace" font-size="11" font-weight="700" fill="#f37626" text-anchor="middle">Jupyter</text>

  <rect x="188" y="236" width="68" height="24" rx="4" fill="rgba(0,153,57,0.08)" stroke="rgba(0,153,57,0.3)" stroke-width="1"/>
  <text x="222" y="252" font-family="'JetBrains Mono','Courier New',monospace" font-size="11" font-weight="700" fill="#3fb950" text-anchor="middle">Nginx</text>

  <line x1="14" y1="272" x2="426" y2="272" stroke="#21262d" stroke-width="0.5"/>
  <text x="14" y="288" font-family="'JetBrains Mono','Courier New',monospace" font-size="10" fill="#8b949e">Linux-first dev environment · Cloud-deployed · Container-ready</text>

  <!-- Card 4: Domains BR -->
  <rect x="460" y="156" width="440" height="140" rx="10" fill="#161b22" stroke="#21262d" stroke-width="1"/>
  <rect x="460" y="156" width="440" height="36" rx="10" fill="#0d1117"/>
  <rect x="460" y="182" width="440" height="10" fill="#0d1117"/>
  <rect x="460" y="191" width="440" height="1" fill="#21262d"/>
  <circle cx="480" cy="174" r="5" fill="#ff5f57"/><circle cx="496" cy="174" r="5" fill="#febc2e"/><circle cx="512" cy="174" r="5" fill="#28c840"/>
  <text x="680" y="179" font-family="'JetBrains Mono','Courier New',monospace" font-size="10" fill="#8b949e" text-anchor="middle" letter-spacing="2">DOMAINS</text>

  <rect x="474" y="204" width="80" height="24" rx="4" fill="rgba(0,217,255,0.08)" stroke="rgba(0,217,255,0.3)" stroke-width="1"/>
  <text x="514" y="220" font-family="'JetBrains Mono','Courier New',monospace" font-size="11" font-weight="700" fill="#00d9ff" text-anchor="middle">WebRTC</text>

  <rect x="562" y="204" width="54" height="24" rx="4" fill="rgba(0,217,255,0.05)" stroke="rgba(0,217,255,0.2)" stroke-width="1"/>
  <text x="589" y="220" font-family="'JetBrains Mono','Courier New',monospace" font-size="11" font-weight="700" fill="#7dd3fc" text-anchor="middle">P2P</text>

  <rect x="624" y="204" width="58" height="24" rx="4" fill="rgba(55,163,221,0.08)" stroke="rgba(55,163,221,0.3)" stroke-width="1"/>
  <text x="653" y="220" font-family="'JetBrains Mono','Courier New',monospace" font-size="11" font-weight="700" fill="#57b6e6" text-anchor="middle">HPC</text>

  <rect x="474" y="236" width="140" height="24" rx="4" fill="rgba(149,88,178,0.08)" stroke="rgba(149,88,178,0.3)" stroke-width="1"/>
  <text x="544" y="252" font-family="'JetBrains Mono','Courier New',monospace" font-size="11" font-weight="700" fill="#c084fc" text-anchor="middle">Comp. Physics</text>

  <rect x="622" y="236" width="132" height="24" rx="4" fill="rgba(63,185,80,0.08)" stroke="rgba(63,185,80,0.3)" stroke-width="1"/>
  <text x="688" y="252" font-family="'JetBrains Mono','Courier New',monospace" font-size="11" font-weight="700" fill="#3fb950" text-anchor="middle">Dist. Systems</text>

  <line x1="474" y1="272" x2="886" y2="272" stroke="#21262d" stroke-width="0.5"/>
  <text x="474" y="288" font-family="'JetBrains Mono','Courier New',monospace" font-size="10" fill="#8b949e">Real-time · Peer-to-peer · Scientific computing · Distributed</text>

</svg>
